HIERARCHY
ROOT Hips
{
	OFFSET 0.00000 0.00000 0.00000
	CHANNELS 6 Xposition Yposition Zposition Zrotation Yrotation Xrotation 
	JOINT LHipJoint
	{
		OFFSET 0 0 0
		CHANNELS 3 Zrotation Yrotation Xrotation
		JOINT LeftHip
		{
			OFFSET 1.58895 -1.83665 0.71753
			CHANNELS 3 Zrotation Yrotation Xrotation
			JOINT LeftKnee
			{
				OFFSET 2.50528 -6.88321 0.00000
				CHANNELS 3 Zrotation Yrotation Xrotation
				JOINT LeftAnkle
				{
					OFFSET 2.63244 -7.23257 0.00000
					CHANNELS 3 Zrotation Yrotation Xrotation
					JOINT LeftToe
					{
						OFFSET 0.23691 -0.65090 1.72750
						CHANNELS 3 Zrotation Yrotation Xrotation
						End Site
						{
							OFFSET 0.00000 -0.00000 0.92561
						}
					}
				}
			}
		}
	}
	JOINT RHipJoint
	{
		OFFSET 0 0 0
		CHANNELS 3 Zrotation Yrotation Xrotation
		JOINT RightHip
		{
			OFFSET -1.51435 -1.83665 0.71753
			CHANNELS 3 Zrotation Yrotation Xrotation
			JOINT RightKnee
			{
				OFFSET -2.54551 -6.99375 0.00000
				CHANNELS 3 Zrotation Yrotation Xrotation
				JOINT RightAnkle
				{
					OFFSET -2.66027 -7.30903 0.00000
					CHANNELS 3 Zrotation Yrotation Xrotation
					JOINT RightToe
					{
						OFFSET -0.22981 -0.63138 2.03959
						CHANNELS 3 Zrotation Yrotation Xrotation
						End Site
						{
							OFFSET -0.00000 -0.00000 1.07060
						}
					}
				}
			}
		}
	}
	JOINT lowerback
	{
		OFFSET 0 0 0
		CHANNELS 3 Zrotation Yrotation Xrotation
		JOINT Chest
		{
			OFFSET -0.02651 1.86275 -0.11152
			CHANNELS 3 Zrotation Yrotation Xrotation
			JOINT Chest2
			{
				OFFSET 0.01019 1.86224 0.04087
				CHANNELS 3 Zrotation Yrotation Xrotation
				JOINT lowerneck
				{
					OFFSET 0 0 0
					CHANNELS 3 Zrotation Yrotation Xrotation
					JOINT Neck
					{
						OFFSET -0.01926 1.80512 0.08867
						CHANNELS 3 Zrotation Yrotation Xrotation
						JOINT Head
						{
							OFFSET 0.05516 1.76451 -0.38475
							CHANNELS 3 Zrotation Yrotation Xrotation
							End Site
							{
								OFFSET 0.01592 1.82587 -0.14001
							}
						}
					}
				}
				JOINT LeftCollar
				{
					OFFSET 0 0 0
					CHANNELS 3 Zrotation Yrotation Xrotation
					JOINT LeftShoulder
					{
						OFFSET 3.47116 1.51376 0.14491
CHANNELS 3 Zrotation Xrotation Yrotation
						JOINT LeftElbow
						{
OFFSET 0 -4.780950 0.000000
CHANNELS 3 Zrotation Xrotation Yrotation
							JOINT LeftWrist
							{
OFFSET 0 -3.586150 -0.000000
CHANNELS 3 Zrotation Xrotation Yrotation
								JOINT lhand
								{
									OFFSET 0 0 0
CHANNELS 3 Zrotation Xrotation Yrotation
									JOINT LFingers
									{
OFFSET 0 -0.659810 0.000000
CHANNELS 3 Zrotation Xrotation Yrotation
										End Site
										{
OFFSET 0 -0.531960 0.000000
										}
									}
								}
								JOINT LThumb
								{
OFFSET 0 0.000000 0.000000
CHANNELS 3 Zrotation Xrotation Yrotation
									End Site
									{
OFFSET 0 -0.540080 0.540080
									}
								}
							}
						}
					}
				}
				JOINT RightCollar
				{
					OFFSET 0 0 0
					CHANNELS 3 Zrotation Yrotation Xrotation
					JOINT RightShoulder
					{
						OFFSET -3.31725 1.61216 0.35156
CHANNELS 3 Zrotation Xrotation Yrotation
						JOINT RightElbow
						{
OFFSET 0 -4.489130 0.000000
CHANNELS 3 Zrotation Xrotation Yrotation
							JOINT RightWrist
							{
OFFSET 0 -3.705100 0.000000
CHANNELS 3 Zrotation Xrotation Yrotation
								JOINT rhand
								{
									OFFSET 0 0 0
CHANNELS 3 Zrotation Xrotation Yrotation
									JOINT RFingers
									{
OFFSET 0 -0.449140 0.000000
CHANNELS 3 Zrotation Xrotation Yrotation
										End Site
										{
OFFSET 0 -0.362110 0.000000
										}
									}
								}
								JOINT RThumb
								{
OFFSET 0 0.000000 0.000000
CHANNELS 3 Zrotation Xrotation Yrotation
									End Site
									{
OFFSET 0 -0.367630 0.367630
									}
								}
							}
						}
					}
				}
			}
		}
	}
}
MOTION
Frames: 6
Frame Time: 0.008333333333333333
-0.770400 18.654300 6.268300 -3.949400 -4.715000 3.243900 0.000000 0.000000 0.000000 -11.162400 -9.769800 -0.409200 1.325500 7.291200 20.581100 2.220800 8.049800 -31.942600 7.990700 -16.112400 -52.529300 0.000000 0.000000 0.000000 0.000000 0.000000 0.000000 0.000000 0.000000 0.000000 -0.000000 -0.000000 0.000000 -0.000000 -0.000000 0.000000 2.432400 0.100700 -2.755000 1.754000 0.071600 -1.527400 0.435400 0.027600 -0.020800 -2.339300 0.571800 -13.197100 2.347000 0.767200 22.809900 1.292200 0.410900 9.333900 -0.000000 -0.000000 0.000000 -4.501500 15.529000 -21.834900 24.320900 -35.501800 7.892200 8.609300 -1.052400 25.730200 0.000000 0.000000 0.000000 -7.125000 0.000000 0.000000 -12.764900 4.535200 -12.024000 -0.000000 -0.000000 0.000000 0.977500 17.842400 19.275300 -24.495100 -35.683400 -7.993500 -4.887000 23.279000 38.004900 0.000000 0.000000 0.000000 7.125000 0.000000 -0.000000 37.379300 64.251700 -18.665700
-0.774016 18.658525 6.261552 -3.960900 -4.567681 3.490799 0.000000 0.000000 0.000000 -10.970771 -9.483101 -0.913002 1.327470 7.296309 20.596242 2.170486 7.791703 -31.488201 8.034912 -16.144805 -52.688331 0.000000 0.000000 0.000000 0.000000 0.000000 0.000000 0.000000 0.000000 0.000000 0.000000 0.000000 0.000000 0.000000 0.000000 0.000000 2.394234 0.061482 -2.875154 1.769220 0.018286 -1.623948 0.471162 0.000554 -0.053094 -2.238987 0.599841 -13.105072 2.174188 0.824381 22.675745 1.220273 0.427590 9.270007 0.000000 0.000000 0.000000 -4.522930 15.498899 -21.773546 24.290789 -35.470204 7.874667 8.526147 -0.914426 25.754195 0.000000 0.000000 0.000000 -7.125000 0.000000 0.000000 -12.815337 4.520508 -12.077585 0.000000 0.000000 0.000000 0.991641 17.814195 19.230685 -24.475033 -35.662563 -7.981808 -4.836313 23.261195 38.003455 0.000000 0.000000 0.000000 7.125000 0.000000 0.000000 37.428152 64.236657 -18.680595
-0.788773 18.675943 6.235867 -3.816832 -3.959619 4.320816 0.000000 0.000000 0.000000 -10.625570 -9.023301 -2.420321 1.327639 7.296848 20.597805 2.028759 7.189612 -30.263246 8.162211 -16.237288 -53.144910 0.000000 0.000000 0.000000 0.000000 0.000000 0.000000 0.000000 0.000000 0.000000 0.000000 0.000000 0.000000 0.000000 0.000000 0.000000 2.003006 -0.135871 -3.256340 1.800813 -0.238731 -1.974207 0.715178 -0.127407 -0.199583 -2.244742 0.607875 -13.089820 2.152138 0.842379 22.644524 1.215272 0.433194 9.255901 0.000000 0.000000 0.000000 -4.552032 15.508335 -21.753333 24.283322 -35.462374 7.870289 8.564046 -0.941638 25.721391 0.000000 0.000000 0.000000 -7.125000 0.000000 0.000000 -12.791793 4.548590 -12.047294 0.000000 0.000000 0.000000 0.976045 17.839297 19.255488 -24.501220 -35.689798 -7.997091 -5.023569 23.389094 37.876270 0.000000 0.000000 0.000000 7.125000 0.000000 0.000000 37.071904 64.188683 -18.437674
-0.787637 18.675346 6.240452 -3.768447 -3.948601 4.315444 0.000000 0.000000 0.000000 -10.671948 -8.920056 -2.440819 1.326301 7.293367 20.587411 2.018354 7.114050 -30.153817 8.159397 -16.235271 -53.134754 0.000000 0.000000 0.000000 0.000000 0.000000 0.000000 0.000000 0.000000 0.000000 0.000000 0.000000 0.000000 0.000000 0.000000 0.000000 1.969944 -0.144689 -3.321688 1.785678 -0.252502 -1.948194 0.717516 -0.133592 -0.136272 -2.234404 0.616775 -13.086012 2.130796 0.857738 22.609675 1.207596 0.439099 9.242877 0.000000 0.000000 0.000000 -4.539786 15.517995 -21.786277 24.302661 -35.482696 7.881542 8.653306 -1.016583 25.650562 0.000000 0.000000 0.000000 -7.125000 0.000000 0.000000 -12.736392 4.608388 -11.977747 0.000000 0.000000 0.000000 0.983821 17.789165 19.237666 -24.478035 -35.665709 -7.983592 -4.873028 23.343532 37.879156 0.000000 0.000000 0.000000 7.125000 0.000000 0.000000 37.226650 64.149836 -18.491855
-0.787657 18.675182 6.243932 -3.766919 -3.941804 4.311863 0.000000 0.000000 0.000000 -10.674093 -8.920332 -2.417138 1.324625 7.288955 20.574242 2.024504 7.098574 -30.183518 8.136145 -16.218449 -53.051607 0.000000 0.000000 0.000000 0.000000 0.000000 0.000000 0.000000 0.000000 0.000000 0.000000 0.000000 0.000000 0.000000 0.000000 0.000000 1.983578 -0.146387 -3.348000 1.768335 -0.255987 -1.944508 0.691895 -0.135402 -0.117914 -2.222496 0.613482 -13.114343 2.152954 0.845228 22.649797 1.212383 0.436543 9.262383 0.000000 0.000000 0.000000 -4.491962 15.542467 -21.814945 24.311953 -35.492392 7.886935 8.600656 -0.985558 25.621873 0.000000 0.000000 0.000000 -7.125000 0.000000 0.000000 -12.767298 4.642072 -12.000116 0.000000 0.000000 0.000000 1.012395 17.774799 19.231123 -24.463632 -35.650732 -7.975175 -4.793451 23.305086 37.864575 0.000000 0.000000 0.000000 7.125000 0.000000 0.000000 37.287231 64.116726 -18.497694
-0.785051 18.669730 6.252003 -3.789832 -4.051609 4.078984 0.000000 0.000000 0.000000 -10.745317 -8.917471 -2.059321 1.324144 7.287485 20.569906 2.049336 7.152805 -30.368114 8.126398 -16.211350 -53.016479 0.000000 0.000000 0.000000 0.000000 0.000000 0.000000 0.000000 0.000000 0.000000 0.000000 0.000000 0.000000 0.000000 0.000000 0.000000 2.095554 -0.096359 -3.054615 1.735954 -0.180819 -1.972240 0.598439 -0.100425 -0.310106 -2.217260 0.614164 -13.072265 2.177412 0.837274 22.756858 1.219908 0.435413 9.291812 0.000000 0.000000 0.000000 -4.434517 15.738042 -21.909952 24.338028 -35.519657 7.902075 8.607566 -1.077712 25.639367 0.000000 0.000000 0.000000 -7.125000 0.000000 0.000000 -12.763597 4.624265 -12.000781 0.000000 0.000000 0.000000 1.059787 17.957736 19.211561 -24.496928 -35.685301 -7.994608 -4.420804 23.058863 37.973146 0.000000 0.000000 0.000000 7.125000 0.000000 0.000000 37.803133 64.099262 -18.775349
